<mxfile host="app.diagrams.net" agent="Mozilla/5.0 (Windows NT 10.0; Win64; x64) AppleWebKit/537.36 (KHTML, like Gecko) Chrome/135.0.0.0 Safari/537.36" version="26.2.14">
  <diagram name="Page-1" id="9f46799a-70d6-7492-0946-bef42562c5a5">
    <mxGraphModel dx="483" dy="217" grid="1" gridSize="10" guides="1" tooltips="1" connect="1" arrows="1" fold="1" page="1" pageScale="1" pageWidth="1100" pageHeight="850" background="none" math="0" shadow="0">
      <root>
        <mxCell id="0" />
        <mxCell id="1" parent="0" />
        <mxCell id="TFbKMD3UNeuh9TNxjZxt-1" value="User" style="swimlane;fontStyle=1;align=center;verticalAlign=top;childLayout=stackLayout;horizontal=1;startSize=26;horizontalStack=0;resizeParent=1;resizeParentMax=0;resizeLast=0;collapsible=1;marginBottom=0;whiteSpace=wrap;html=1;" parent="1" vertex="1">
          <mxGeometry x="259" y="206" width="160" height="126" as="geometry" />
        </mxCell>
        <mxCell id="TFbKMD3UNeuh9TNxjZxt-89" value="&lt;div&gt;- Id: int&lt;/div&gt;- Name: string&lt;div&gt;- UserName: string&lt;/div&gt;&lt;div&gt;- Email: string&lt;/div&gt;&lt;div&gt;- Password: string&lt;/div&gt;&lt;div&gt;- RoleName: string&lt;br&gt;&lt;div&gt;&lt;br&gt;&lt;/div&gt;&lt;/div&gt;" style="text;strokeColor=none;fillColor=none;align=left;verticalAlign=top;spacingLeft=4;spacingRight=4;overflow=hidden;rotatable=0;points=[[0,0.5],[1,0.5]];portConstraint=eastwest;whiteSpace=wrap;html=1;" parent="TFbKMD3UNeuh9TNxjZxt-1" vertex="1">
          <mxGeometry y="26" width="160" height="94" as="geometry" />
        </mxCell>
        <mxCell id="TFbKMD3UNeuh9TNxjZxt-3" value="" style="line;strokeWidth=1;fillColor=none;align=left;verticalAlign=middle;spacingTop=-1;spacingLeft=3;spacingRight=3;rotatable=0;labelPosition=right;points=[];portConstraint=eastwest;strokeColor=inherit;" parent="TFbKMD3UNeuh9TNxjZxt-1" vertex="1">
          <mxGeometry y="120" width="160" height="6" as="geometry" />
        </mxCell>
        <mxCell id="TFbKMD3UNeuh9TNxjZxt-4" value="Student" style="swimlane;fontStyle=1;align=center;verticalAlign=top;childLayout=stackLayout;horizontal=1;startSize=26;horizontalStack=0;resizeParent=1;resizeParentMax=0;resizeLast=0;collapsible=1;marginBottom=0;whiteSpace=wrap;html=1;" parent="1" vertex="1">
          <mxGeometry x="522" y="203" width="200" height="120" as="geometry">
            <mxRectangle x="190" y="400" width="80" height="30" as="alternateBounds" />
          </mxGeometry>
        </mxCell>
        <mxCell id="TFbKMD3UNeuh9TNxjZxt-5" value="- UserId: int&lt;div&gt;- /age : int&amp;nbsp;&lt;/div&gt;" style="text;strokeColor=none;fillColor=none;align=left;verticalAlign=top;spacingLeft=4;spacingRight=4;overflow=hidden;rotatable=0;points=[[0,0.5],[1,0.5]];portConstraint=eastwest;whiteSpace=wrap;html=1;" parent="TFbKMD3UNeuh9TNxjZxt-4" vertex="1">
          <mxGeometry y="26" width="200" height="34" as="geometry" />
        </mxCell>
        <mxCell id="TFbKMD3UNeuh9TNxjZxt-6" value="" style="line;strokeWidth=1;fillColor=none;align=left;verticalAlign=middle;spacingTop=-1;spacingLeft=3;spacingRight=3;rotatable=0;labelPosition=right;points=[];portConstraint=eastwest;strokeColor=inherit;" parent="TFbKMD3UNeuh9TNxjZxt-4" vertex="1">
          <mxGeometry y="60" width="200" height="8" as="geometry" />
        </mxCell>
        <mxCell id="TFbKMD3UNeuh9TNxjZxt-7" value="+ RegisterCourse(course : Course)&lt;div&gt;+ GiveEvaluation(Eval : Evaluation)&lt;br&gt;&lt;/div&gt;&lt;div&gt;+ GetGrades()&lt;/div&gt;&lt;div&gt;&lt;br&gt;&lt;/div&gt;" style="text;strokeColor=none;fillColor=none;align=left;verticalAlign=top;spacingLeft=4;spacingRight=4;overflow=hidden;rotatable=0;points=[[0,0.5],[1,0.5]];portConstraint=eastwest;whiteSpace=wrap;html=1;" parent="TFbKMD3UNeuh9TNxjZxt-4" vertex="1">
          <mxGeometry y="68" width="200" height="52" as="geometry" />
        </mxCell>
        <mxCell id="TFbKMD3UNeuh9TNxjZxt-8" value="Faculty member" style="swimlane;fontStyle=1;align=center;verticalAlign=top;childLayout=stackLayout;horizontal=1;startSize=26;horizontalStack=0;resizeParent=1;resizeParentMax=0;resizeLast=0;collapsible=1;marginBottom=0;whiteSpace=wrap;html=1;" parent="1" vertex="1">
          <mxGeometry x="170" y="540" width="180" height="140" as="geometry" />
        </mxCell>
        <mxCell id="TFbKMD3UNeuh9TNxjZxt-9" value="- UserId: int&lt;div&gt;- SsNo : int {Unique,readonly}&lt;/div&gt;" style="text;strokeColor=none;fillColor=none;align=left;verticalAlign=top;spacingLeft=4;spacingRight=4;overflow=hidden;rotatable=0;points=[[0,0.5],[1,0.5]];portConstraint=eastwest;whiteSpace=wrap;html=1;" parent="TFbKMD3UNeuh9TNxjZxt-8" vertex="1">
          <mxGeometry y="26" width="180" height="34" as="geometry" />
        </mxCell>
        <mxCell id="TFbKMD3UNeuh9TNxjZxt-10" value="" style="line;strokeWidth=1;fillColor=none;align=left;verticalAlign=middle;spacingTop=-1;spacingLeft=3;spacingRight=3;rotatable=0;labelPosition=right;points=[];portConstraint=eastwest;strokeColor=inherit;" parent="TFbKMD3UNeuh9TNxjZxt-8" vertex="1">
          <mxGeometry y="60" width="180" height="8" as="geometry" />
        </mxCell>
        <mxCell id="TFbKMD3UNeuh9TNxjZxt-11" value="+ AddCourse(crs : Course)&lt;div&gt;+ UpdateCourse(crs : Course)&lt;/div&gt;&lt;div&gt;+ DeleteCourse(CrsId : int)&lt;/div&gt;&lt;div&gt;+ AddExam(exam : Exam)&lt;/div&gt;&lt;div&gt;&lt;br&gt;&lt;/div&gt;" style="text;strokeColor=none;fillColor=none;align=left;verticalAlign=top;spacingLeft=4;spacingRight=4;overflow=hidden;rotatable=0;points=[[0,0.5],[1,0.5]];portConstraint=eastwest;whiteSpace=wrap;html=1;" parent="TFbKMD3UNeuh9TNxjZxt-8" vertex="1">
          <mxGeometry y="68" width="180" height="72" as="geometry" />
        </mxCell>
        <mxCell id="TFbKMD3UNeuh9TNxjZxt-12" value="Course" style="swimlane;fontStyle=1;align=center;verticalAlign=top;childLayout=stackLayout;horizontal=1;startSize=26;horizontalStack=0;resizeParent=1;resizeParentMax=0;resizeLast=0;collapsible=1;marginBottom=0;whiteSpace=wrap;html=1;" parent="1" vertex="1">
          <mxGeometry x="448" y="550" width="200" height="114" as="geometry" />
        </mxCell>
        <mxCell id="TFbKMD3UNeuh9TNxjZxt-13" value="- CrsId : int&lt;div&gt;- CrsName : string&lt;/div&gt;&lt;div&gt;- Description : string&lt;/div&gt;" style="text;strokeColor=none;fillColor=none;align=left;verticalAlign=top;spacingLeft=4;spacingRight=4;overflow=hidden;rotatable=0;points=[[0,0.5],[1,0.5]];portConstraint=eastwest;whiteSpace=wrap;html=1;" parent="TFbKMD3UNeuh9TNxjZxt-12" vertex="1">
          <mxGeometry y="26" width="200" height="54" as="geometry" />
        </mxCell>
        <mxCell id="TFbKMD3UNeuh9TNxjZxt-14" value="" style="line;strokeWidth=1;fillColor=none;align=left;verticalAlign=middle;spacingTop=-1;spacingLeft=3;spacingRight=3;rotatable=0;labelPosition=right;points=[];portConstraint=eastwest;strokeColor=inherit;" parent="TFbKMD3UNeuh9TNxjZxt-12" vertex="1">
          <mxGeometry y="80" width="200" height="8" as="geometry" />
        </mxCell>
        <mxCell id="TFbKMD3UNeuh9TNxjZxt-15" value="+ ShowCourses() : List&amp;lt;Courses&amp;gt;" style="text;strokeColor=none;fillColor=none;align=left;verticalAlign=top;spacingLeft=4;spacingRight=4;overflow=hidden;rotatable=0;points=[[0,0.5],[1,0.5]];portConstraint=eastwest;whiteSpace=wrap;html=1;" parent="TFbKMD3UNeuh9TNxjZxt-12" vertex="1">
          <mxGeometry y="88" width="200" height="26" as="geometry" />
        </mxCell>
        <mxCell id="TFbKMD3UNeuh9TNxjZxt-16" value="CourseRegistration" style="swimlane;fontStyle=1;align=center;verticalAlign=top;childLayout=stackLayout;horizontal=1;startSize=26;horizontalStack=0;resizeParent=1;resizeParentMax=0;resizeLast=0;collapsible=1;marginBottom=0;whiteSpace=wrap;html=1;" parent="1" vertex="1">
          <mxGeometry x="710" y="356" width="160" height="84" as="geometry">
            <mxRectangle x="710" y="356" width="140" height="30" as="alternateBounds" />
          </mxGeometry>
        </mxCell>
        <mxCell id="TFbKMD3UNeuh9TNxjZxt-17" value="- Grade : double[2...7]" style="text;strokeColor=none;fillColor=none;align=left;verticalAlign=top;spacingLeft=4;spacingRight=4;overflow=hidden;rotatable=0;points=[[0,0.5],[1,0.5]];portConstraint=eastwest;whiteSpace=wrap;html=1;" parent="TFbKMD3UNeuh9TNxjZxt-16" vertex="1">
          <mxGeometry y="26" width="160" height="24" as="geometry" />
        </mxCell>
        <mxCell id="TFbKMD3UNeuh9TNxjZxt-18" value="" style="line;strokeWidth=1;fillColor=none;align=left;verticalAlign=middle;spacingTop=-1;spacingLeft=3;spacingRight=3;rotatable=0;labelPosition=right;points=[];portConstraint=eastwest;strokeColor=inherit;" parent="TFbKMD3UNeuh9TNxjZxt-16" vertex="1">
          <mxGeometry y="50" width="160" height="8" as="geometry" />
        </mxCell>
        <mxCell id="TFbKMD3UNeuh9TNxjZxt-19" value="+ ShowGrades()&amp;nbsp;" style="text;strokeColor=none;fillColor=none;align=left;verticalAlign=top;spacingLeft=4;spacingRight=4;overflow=hidden;rotatable=0;points=[[0,0.5],[1,0.5]];portConstraint=eastwest;whiteSpace=wrap;html=1;" parent="TFbKMD3UNeuh9TNxjZxt-16" vertex="1">
          <mxGeometry y="58" width="160" height="26" as="geometry" />
        </mxCell>
        <mxCell id="TFbKMD3UNeuh9TNxjZxt-20" value="Schedule" style="swimlane;fontStyle=1;align=center;verticalAlign=top;childLayout=stackLayout;horizontal=1;startSize=26;horizontalStack=0;resizeParent=1;resizeParentMax=0;resizeLast=0;collapsible=1;marginBottom=0;whiteSpace=wrap;html=1;" parent="1" vertex="1">
          <mxGeometry x="252" y="700" width="258" height="130" as="geometry" />
        </mxCell>
        <mxCell id="TFbKMD3UNeuh9TNxjZxt-21" value="- scheId : int&lt;div&gt;- Date : date&lt;/div&gt;&lt;div&gt;- EventType : string&lt;/div&gt;" style="text;strokeColor=none;fillColor=none;align=left;verticalAlign=top;spacingLeft=4;spacingRight=4;overflow=hidden;rotatable=0;points=[[0,0.5],[1,0.5]];portConstraint=eastwest;whiteSpace=wrap;html=1;" parent="TFbKMD3UNeuh9TNxjZxt-20" vertex="1">
          <mxGeometry y="26" width="258" height="54" as="geometry" />
        </mxCell>
        <mxCell id="TFbKMD3UNeuh9TNxjZxt-22" value="" style="line;strokeWidth=1;fillColor=none;align=left;verticalAlign=middle;spacingTop=-1;spacingLeft=3;spacingRight=3;rotatable=0;labelPosition=right;points=[];portConstraint=eastwest;strokeColor=inherit;" parent="TFbKMD3UNeuh9TNxjZxt-20" vertex="1">
          <mxGeometry y="80" width="258" height="8" as="geometry" />
        </mxCell>
        <mxCell id="TFbKMD3UNeuh9TNxjZxt-23" value="+ AddSchedule(Date : date,EventType : string)&lt;br&gt;+ ShowSchedule() :&amp;nbsp;&lt;span style=&quot;text-align: center;&quot;&gt;Schedule&lt;/span&gt;" style="text;strokeColor=none;fillColor=none;align=left;verticalAlign=top;spacingLeft=4;spacingRight=4;overflow=hidden;rotatable=0;points=[[0,0.5],[1,0.5]];portConstraint=eastwest;whiteSpace=wrap;html=1;" parent="TFbKMD3UNeuh9TNxjZxt-20" vertex="1">
          <mxGeometry y="88" width="258" height="42" as="geometry" />
        </mxCell>
        <mxCell id="TFbKMD3UNeuh9TNxjZxt-24" value="CourseVideos" style="swimlane;fontStyle=1;align=center;verticalAlign=top;childLayout=stackLayout;horizontal=1;startSize=26;horizontalStack=0;resizeParent=1;resizeParentMax=0;resizeLast=0;collapsible=1;marginBottom=0;whiteSpace=wrap;html=1;" parent="1" vertex="1">
          <mxGeometry x="708" y="449" width="190" height="94" as="geometry" />
        </mxCell>
        <mxCell id="TFbKMD3UNeuh9TNxjZxt-25" value="&lt;div&gt;- VideoId : int&lt;div&gt;- VideoPath : string[1...*]{Unique}&amp;nbsp;&lt;/div&gt;&lt;div&gt;&lt;br&gt;&lt;/div&gt;&lt;/div&gt;" style="text;strokeColor=none;fillColor=none;align=left;verticalAlign=top;spacingLeft=4;spacingRight=4;overflow=hidden;rotatable=0;points=[[0,0.5],[1,0.5]];portConstraint=eastwest;whiteSpace=wrap;html=1;" parent="TFbKMD3UNeuh9TNxjZxt-24" vertex="1">
          <mxGeometry y="26" width="190" height="34" as="geometry" />
        </mxCell>
        <mxCell id="TFbKMD3UNeuh9TNxjZxt-26" value="" style="line;strokeWidth=1;fillColor=none;align=left;verticalAlign=middle;spacingTop=-1;spacingLeft=3;spacingRight=3;rotatable=0;labelPosition=right;points=[];portConstraint=eastwest;strokeColor=inherit;" parent="TFbKMD3UNeuh9TNxjZxt-24" vertex="1">
          <mxGeometry y="60" width="190" height="8" as="geometry" />
        </mxCell>
        <mxCell id="TFbKMD3UNeuh9TNxjZxt-27" value="+ AddVideo(Videopath : string)" style="text;strokeColor=none;fillColor=none;align=left;verticalAlign=top;spacingLeft=4;spacingRight=4;overflow=hidden;rotatable=0;points=[[0,0.5],[1,0.5]];portConstraint=eastwest;whiteSpace=wrap;html=1;" parent="TFbKMD3UNeuh9TNxjZxt-24" vertex="1">
          <mxGeometry y="68" width="190" height="26" as="geometry" />
        </mxCell>
        <mxCell id="TFbKMD3UNeuh9TNxjZxt-28" value="Exam" style="swimlane;fontStyle=1;align=center;verticalAlign=top;childLayout=stackLayout;horizontal=1;startSize=26;horizontalStack=0;resizeParent=1;resizeParentMax=0;resizeLast=0;collapsible=1;marginBottom=0;whiteSpace=wrap;html=1;" parent="1" vertex="1">
          <mxGeometry x="540" y="713" width="160" height="124" as="geometry" />
        </mxCell>
        <mxCell id="TFbKMD3UNeuh9TNxjZxt-29" value="&lt;div&gt;- ExamId : int&lt;div&gt;- Title : string&lt;/div&gt;&lt;div&gt;- Type : string&lt;/div&gt;&lt;div&gt;- Date :&amp;nbsp; date&lt;/div&gt;&lt;div&gt;&lt;br&gt;&lt;/div&gt;&lt;/div&gt;" style="text;strokeColor=none;fillColor=none;align=left;verticalAlign=top;spacingLeft=4;spacingRight=4;overflow=hidden;rotatable=0;points=[[0,0.5],[1,0.5]];portConstraint=eastwest;whiteSpace=wrap;html=1;" parent="TFbKMD3UNeuh9TNxjZxt-28" vertex="1">
          <mxGeometry y="26" width="160" height="64" as="geometry" />
        </mxCell>
        <mxCell id="TFbKMD3UNeuh9TNxjZxt-30" value="" style="line;strokeWidth=1;fillColor=none;align=left;verticalAlign=middle;spacingTop=-1;spacingLeft=3;spacingRight=3;rotatable=0;labelPosition=right;points=[];portConstraint=eastwest;strokeColor=inherit;" parent="TFbKMD3UNeuh9TNxjZxt-28" vertex="1">
          <mxGeometry y="90" width="160" height="8" as="geometry" />
        </mxCell>
        <mxCell id="TFbKMD3UNeuh9TNxjZxt-31" value="+ GetExam() : Exam" style="text;strokeColor=none;fillColor=none;align=left;verticalAlign=top;spacingLeft=4;spacingRight=4;overflow=hidden;rotatable=0;points=[[0,0.5],[1,0.5]];portConstraint=eastwest;whiteSpace=wrap;html=1;" parent="TFbKMD3UNeuh9TNxjZxt-28" vertex="1">
          <mxGeometry y="98" width="160" height="26" as="geometry" />
        </mxCell>
        <mxCell id="TFbKMD3UNeuh9TNxjZxt-32" value="StudentAnswers" style="swimlane;fontStyle=1;align=center;verticalAlign=top;childLayout=stackLayout;horizontal=1;startSize=26;horizontalStack=0;resizeParent=1;resizeParentMax=0;resizeLast=0;collapsible=1;marginBottom=0;whiteSpace=wrap;html=1;" parent="1" vertex="1">
          <mxGeometry x="700" y="560" width="190" height="130" as="geometry" />
        </mxCell>
        <mxCell id="TFbKMD3UNeuh9TNxjZxt-33" value="- AnswerId : int&lt;div&gt;- Answer : string&lt;/div&gt;&lt;div&gt;- IsCorrect : bool = false&lt;/div&gt;" style="text;strokeColor=none;fillColor=none;align=left;verticalAlign=top;spacingLeft=4;spacingRight=4;overflow=hidden;rotatable=0;points=[[0,0.5],[1,0.5]];portConstraint=eastwest;whiteSpace=wrap;html=1;" parent="TFbKMD3UNeuh9TNxjZxt-32" vertex="1">
          <mxGeometry y="26" width="190" height="54" as="geometry" />
        </mxCell>
        <mxCell id="TFbKMD3UNeuh9TNxjZxt-34" value="" style="line;strokeWidth=1;fillColor=none;align=left;verticalAlign=middle;spacingTop=-1;spacingLeft=3;spacingRight=3;rotatable=0;labelPosition=right;points=[];portConstraint=eastwest;strokeColor=inherit;" parent="TFbKMD3UNeuh9TNxjZxt-32" vertex="1">
          <mxGeometry y="80" width="190" height="8" as="geometry" />
        </mxCell>
        <mxCell id="TFbKMD3UNeuh9TNxjZxt-35" value="+ AddAnswer(answer : string)&lt;br&gt;+ GetAnswer() :&amp;nbsp; StudentAnswer" style="text;strokeColor=none;fillColor=none;align=left;verticalAlign=top;spacingLeft=4;spacingRight=4;overflow=hidden;rotatable=0;points=[[0,0.5],[1,0.5]];portConstraint=eastwest;whiteSpace=wrap;html=1;" parent="TFbKMD3UNeuh9TNxjZxt-32" vertex="1">
          <mxGeometry y="88" width="190" height="42" as="geometry" />
        </mxCell>
        <mxCell id="TFbKMD3UNeuh9TNxjZxt-36" value="Notification" style="swimlane;fontStyle=1;align=center;verticalAlign=top;childLayout=stackLayout;horizontal=1;startSize=26;horizontalStack=0;resizeParent=1;resizeParentMax=0;resizeLast=0;collapsible=1;marginBottom=0;whiteSpace=wrap;html=1;" parent="1" vertex="1">
          <mxGeometry y="153" width="190" height="140" as="geometry" />
        </mxCell>
        <mxCell id="TFbKMD3UNeuh9TNxjZxt-37" value="- NotifId : int&lt;div&gt;- Message : string&lt;/div&gt;&lt;div&gt;- IsRead : bool = false&lt;/div&gt;&lt;div&gt;- DateSent : Date&lt;/div&gt;" style="text;strokeColor=none;fillColor=none;align=left;verticalAlign=top;spacingLeft=4;spacingRight=4;overflow=hidden;rotatable=0;points=[[0,0.5],[1,0.5]];portConstraint=eastwest;whiteSpace=wrap;html=1;" parent="TFbKMD3UNeuh9TNxjZxt-36" vertex="1">
          <mxGeometry y="26" width="190" height="64" as="geometry" />
        </mxCell>
        <mxCell id="TFbKMD3UNeuh9TNxjZxt-38" value="" style="line;strokeWidth=1;fillColor=none;align=left;verticalAlign=middle;spacingTop=-1;spacingLeft=3;spacingRight=3;rotatable=0;labelPosition=right;points=[];portConstraint=eastwest;strokeColor=inherit;" parent="TFbKMD3UNeuh9TNxjZxt-36" vertex="1">
          <mxGeometry y="90" width="190" height="8" as="geometry" />
        </mxCell>
        <mxCell id="TFbKMD3UNeuh9TNxjZxt-39" value="+ SendNotification() : Notification&lt;br&gt;+ MarkAsRead() : bool" style="text;strokeColor=none;fillColor=none;align=left;verticalAlign=top;spacingLeft=4;spacingRight=4;overflow=hidden;rotatable=0;points=[[0,0.5],[1,0.5]];portConstraint=eastwest;whiteSpace=wrap;html=1;" parent="TFbKMD3UNeuh9TNxjZxt-36" vertex="1">
          <mxGeometry y="98" width="190" height="42" as="geometry" />
        </mxCell>
        <mxCell id="TFbKMD3UNeuh9TNxjZxt-40" value="Evaluation" style="swimlane;fontStyle=1;align=center;verticalAlign=top;childLayout=stackLayout;horizontal=1;startSize=26;horizontalStack=0;resizeParent=1;resizeParentMax=0;resizeLast=0;collapsible=1;marginBottom=0;whiteSpace=wrap;html=1;" parent="1" vertex="1">
          <mxGeometry x="150" y="34" width="180" height="114" as="geometry" />
        </mxCell>
        <mxCell id="TFbKMD3UNeuh9TNxjZxt-41" value="- EvaluationId : int&lt;div&gt;- Date : date&lt;/div&gt;&lt;div&gt;- comment : string&lt;/div&gt;" style="text;strokeColor=none;fillColor=none;align=left;verticalAlign=top;spacingLeft=4;spacingRight=4;overflow=hidden;rotatable=0;points=[[0,0.5],[1,0.5]];portConstraint=eastwest;whiteSpace=wrap;html=1;" parent="TFbKMD3UNeuh9TNxjZxt-40" vertex="1">
          <mxGeometry y="26" width="180" height="54" as="geometry" />
        </mxCell>
        <mxCell id="TFbKMD3UNeuh9TNxjZxt-42" value="" style="line;strokeWidth=1;fillColor=none;align=left;verticalAlign=middle;spacingTop=-1;spacingLeft=3;spacingRight=3;rotatable=0;labelPosition=right;points=[];portConstraint=eastwest;strokeColor=inherit;" parent="TFbKMD3UNeuh9TNxjZxt-40" vertex="1">
          <mxGeometry y="80" width="180" height="8" as="geometry" />
        </mxCell>
        <mxCell id="TFbKMD3UNeuh9TNxjZxt-43" value="+ Get&lt;span style=&quot;text-align: center;&quot;&gt;Evaluations&lt;/span&gt;&lt;span style=&quot;font-weight: 700; text-align: center;&quot;&gt;() : &lt;/span&gt;&lt;span style=&quot;text-align: center;&quot;&gt;Evaluation&lt;/span&gt;" style="text;strokeColor=none;fillColor=none;align=left;verticalAlign=top;spacingLeft=4;spacingRight=4;overflow=hidden;rotatable=0;points=[[0,0.5],[1,0.5]];portConstraint=eastwest;whiteSpace=wrap;html=1;" parent="TFbKMD3UNeuh9TNxjZxt-40" vertex="1">
          <mxGeometry y="88" width="180" height="26" as="geometry" />
        </mxCell>
        <mxCell id="TFbKMD3UNeuh9TNxjZxt-44" value="Questionnaire" style="swimlane;fontStyle=1;align=center;verticalAlign=top;childLayout=stackLayout;horizontal=1;startSize=26;horizontalStack=0;resizeParent=1;resizeParentMax=0;resizeLast=0;collapsible=1;marginBottom=0;whiteSpace=wrap;html=1;" parent="1" vertex="1">
          <mxGeometry x="390" y="60" width="240" height="130" as="geometry" />
        </mxCell>
        <mxCell id="TFbKMD3UNeuh9TNxjZxt-45" value="&lt;div&gt;&lt;div&gt;-&amp;nbsp;QuestionnaireId : int&lt;div&gt;- Type : string&lt;/div&gt;&lt;div&gt;- Title : string&lt;br&gt;&lt;div&gt;&lt;br&gt;&lt;/div&gt;&lt;/div&gt;&lt;/div&gt;&lt;/div&gt;" style="text;strokeColor=none;fillColor=none;align=left;verticalAlign=top;spacingLeft=4;spacingRight=4;overflow=hidden;rotatable=0;points=[[0,0.5],[1,0.5]];portConstraint=eastwest;whiteSpace=wrap;html=1;" parent="TFbKMD3UNeuh9TNxjZxt-44" vertex="1">
          <mxGeometry y="26" width="240" height="54" as="geometry" />
        </mxCell>
        <mxCell id="TFbKMD3UNeuh9TNxjZxt-46" value="" style="line;strokeWidth=1;fillColor=none;align=left;verticalAlign=middle;spacingTop=-1;spacingLeft=3;spacingRight=3;rotatable=0;labelPosition=right;points=[];portConstraint=eastwest;strokeColor=inherit;" parent="TFbKMD3UNeuh9TNxjZxt-44" vertex="1">
          <mxGeometry y="80" width="240" height="8" as="geometry" />
        </mxCell>
        <mxCell id="TFbKMD3UNeuh9TNxjZxt-47" value="+ Add&lt;span style=&quot;text-align: center;&quot;&gt;Questionnaire(type string,title string)&lt;br&gt;+ Get&lt;/span&gt;&lt;span style=&quot;text-align: center;&quot;&gt;Questionnaire() :&amp;nbsp;&lt;/span&gt;&lt;span style=&quot;text-align: center;&quot;&gt;Questionnaire&lt;/span&gt;&lt;span style=&quot;text-align: center;&quot;&gt;&amp;nbsp;&lt;/span&gt;" style="text;strokeColor=none;fillColor=none;align=left;verticalAlign=top;spacingLeft=4;spacingRight=4;overflow=hidden;rotatable=0;points=[[0,0.5],[1,0.5]];portConstraint=eastwest;whiteSpace=wrap;html=1;" parent="TFbKMD3UNeuh9TNxjZxt-44" vertex="1">
          <mxGeometry y="88" width="240" height="42" as="geometry" />
        </mxCell>
        <mxCell id="TFbKMD3UNeuh9TNxjZxt-48" value="EvalQuestion" style="swimlane;fontStyle=1;align=center;verticalAlign=top;childLayout=stackLayout;horizontal=1;startSize=26;horizontalStack=0;resizeParent=1;resizeParentMax=0;resizeLast=0;collapsible=1;marginBottom=0;whiteSpace=wrap;html=1;" parent="1" vertex="1">
          <mxGeometry x="750" y="230" width="180" height="110" as="geometry" />
        </mxCell>
        <mxCell id="TFbKMD3UNeuh9TNxjZxt-49" value="- QuestionId : int&lt;div&gt;- Text : string&amp;nbsp;&amp;nbsp;&lt;/div&gt;" style="text;strokeColor=none;fillColor=none;align=left;verticalAlign=top;spacingLeft=4;spacingRight=4;overflow=hidden;rotatable=0;points=[[0,0.5],[1,0.5]];portConstraint=eastwest;whiteSpace=wrap;html=1;" parent="TFbKMD3UNeuh9TNxjZxt-48" vertex="1">
          <mxGeometry y="26" width="180" height="34" as="geometry" />
        </mxCell>
        <mxCell id="TFbKMD3UNeuh9TNxjZxt-50" value="" style="line;strokeWidth=1;fillColor=none;align=left;verticalAlign=middle;spacingTop=-1;spacingLeft=3;spacingRight=3;rotatable=0;labelPosition=right;points=[];portConstraint=eastwest;strokeColor=inherit;" parent="TFbKMD3UNeuh9TNxjZxt-48" vertex="1">
          <mxGeometry y="60" width="180" height="8" as="geometry" />
        </mxCell>
        <mxCell id="TFbKMD3UNeuh9TNxjZxt-51" value="+ AddQuestion(text : string)&lt;br&gt;+ GetQuestion() :&amp;nbsp;&lt;span style=&quot;text-align: center;&quot;&gt;EvalQuestion&lt;/span&gt;" style="text;strokeColor=none;fillColor=none;align=left;verticalAlign=top;spacingLeft=4;spacingRight=4;overflow=hidden;rotatable=0;points=[[0,0.5],[1,0.5]];portConstraint=eastwest;whiteSpace=wrap;html=1;" parent="TFbKMD3UNeuh9TNxjZxt-48" vertex="1">
          <mxGeometry y="68" width="180" height="42" as="geometry" />
        </mxCell>
        <mxCell id="TFbKMD3UNeuh9TNxjZxt-52" value="QuestionResponse" style="swimlane;fontStyle=1;align=center;verticalAlign=top;childLayout=stackLayout;horizontal=1;startSize=26;horizontalStack=0;resizeParent=1;resizeParentMax=0;resizeLast=0;collapsible=1;marginBottom=0;whiteSpace=wrap;html=1;" parent="1" vertex="1">
          <mxGeometry x="770" y="23" width="230" height="120" as="geometry" />
        </mxCell>
        <mxCell id="TFbKMD3UNeuh9TNxjZxt-53" value="- ResponseId : int&lt;div&gt;- Rating : int [0...5]&lt;/div&gt;" style="text;strokeColor=none;fillColor=none;align=left;verticalAlign=top;spacingLeft=4;spacingRight=4;overflow=hidden;rotatable=0;points=[[0,0.5],[1,0.5]];portConstraint=eastwest;whiteSpace=wrap;html=1;" parent="TFbKMD3UNeuh9TNxjZxt-52" vertex="1">
          <mxGeometry y="26" width="230" height="44" as="geometry" />
        </mxCell>
        <mxCell id="TFbKMD3UNeuh9TNxjZxt-54" value="" style="line;strokeWidth=1;fillColor=none;align=left;verticalAlign=middle;spacingTop=-1;spacingLeft=3;spacingRight=3;rotatable=0;labelPosition=right;points=[];portConstraint=eastwest;strokeColor=inherit;" parent="TFbKMD3UNeuh9TNxjZxt-52" vertex="1">
          <mxGeometry y="70" width="230" height="8" as="geometry" />
        </mxCell>
        <mxCell id="TFbKMD3UNeuh9TNxjZxt-55" value="+ AddResponse(rating : int)&lt;br&gt;+ GetResponse() :&amp;nbsp;&lt;span style=&quot;text-align: center;&quot;&gt;QuestionResponse&lt;/span&gt;&amp;nbsp;" style="text;strokeColor=none;fillColor=none;align=left;verticalAlign=top;spacingLeft=4;spacingRight=4;overflow=hidden;rotatable=0;points=[[0,0.5],[1,0.5]];portConstraint=eastwest;whiteSpace=wrap;html=1;" parent="TFbKMD3UNeuh9TNxjZxt-52" vertex="1">
          <mxGeometry y="78" width="230" height="42" as="geometry" />
        </mxCell>
        <mxCell id="TFbKMD3UNeuh9TNxjZxt-56" value="Admin" style="swimlane;fontStyle=1;align=center;verticalAlign=top;childLayout=stackLayout;horizontal=1;startSize=26;horizontalStack=0;resizeParent=1;resizeParentMax=0;resizeLast=0;collapsible=1;marginBottom=0;whiteSpace=wrap;html=1;" parent="1" vertex="1">
          <mxGeometry x="10" y="380" width="220" height="150" as="geometry" />
        </mxCell>
        <mxCell id="TFbKMD3UNeuh9TNxjZxt-57" value="- UserId" style="text;strokeColor=none;fillColor=none;align=left;verticalAlign=top;spacingLeft=4;spacingRight=4;overflow=hidden;rotatable=0;points=[[0,0.5],[1,0.5]];portConstraint=eastwest;whiteSpace=wrap;html=1;" parent="TFbKMD3UNeuh9TNxjZxt-56" vertex="1">
          <mxGeometry y="26" width="220" height="26" as="geometry" />
        </mxCell>
        <mxCell id="TFbKMD3UNeuh9TNxjZxt-58" value="" style="line;strokeWidth=1;fillColor=none;align=left;verticalAlign=middle;spacingTop=-1;spacingLeft=3;spacingRight=3;rotatable=0;labelPosition=right;points=[];portConstraint=eastwest;strokeColor=inherit;" parent="TFbKMD3UNeuh9TNxjZxt-56" vertex="1">
          <mxGeometry y="52" width="220" height="8" as="geometry" />
        </mxCell>
        <mxCell id="TFbKMD3UNeuh9TNxjZxt-59" value="+ AddUser(user : User)&lt;br&gt;+ UpdateUser(userId : int)&amp;nbsp;&lt;br&gt;+ DeleteUser(UserId : int)&amp;nbsp;&lt;br&gt;+ GetUsers() : List&amp;lt;User&amp;gt;&lt;br&gt;+ AddEvaluation(ques : EvalQuestion)&amp;nbsp;" style="text;strokeColor=none;fillColor=none;align=left;verticalAlign=top;spacingLeft=4;spacingRight=4;overflow=hidden;rotatable=0;points=[[0,0.5],[1,0.5]];portConstraint=eastwest;whiteSpace=wrap;html=1;" parent="TFbKMD3UNeuh9TNxjZxt-56" vertex="1">
          <mxGeometry y="60" width="220" height="90" as="geometry" />
        </mxCell>
        <mxCell id="TFbKMD3UNeuh9TNxjZxt-60" value="" style="endArrow=open;startArrow=cross;endFill=0;startFill=0;endSize=8;startSize=10;html=1;rounded=0;exitX=0;exitY=0.001;exitDx=0;exitDy=0;exitPerimeter=0;" parent="1" edge="1" source="TFbKMD3UNeuh9TNxjZxt-89">
          <mxGeometry width="160" relative="1" as="geometry">
            <mxPoint x="239" y="279" as="sourcePoint" />
            <mxPoint x="190" y="232" as="targetPoint" />
          </mxGeometry>
        </mxCell>
        <mxCell id="TFbKMD3UNeuh9TNxjZxt-61" value="" style="endArrow=open;startArrow=cross;endFill=0;startFill=0;endSize=8;startSize=10;html=1;rounded=0;entryX=0.009;entryY=0.019;entryDx=0;entryDy=0;entryPerimeter=0;exitX=1.008;exitY=0.32;exitDx=0;exitDy=0;exitPerimeter=0;" parent="1" source="TFbKMD3UNeuh9TNxjZxt-9" target="TFbKMD3UNeuh9TNxjZxt-13" edge="1">
          <mxGeometry width="160" relative="1" as="geometry">
            <mxPoint x="356" y="520" as="sourcePoint" />
            <mxPoint x="460" y="530" as="targetPoint" />
          </mxGeometry>
        </mxCell>
        <mxCell id="TFbKMD3UNeuh9TNxjZxt-62" value="" style="endArrow=open;html=1;endSize=12;startArrow=diamondThin;startSize=14;startFill=1;edgeStyle=orthogonalEdgeStyle;align=left;verticalAlign=bottom;rounded=0;exitX=1;exitY=0;exitDx=0;exitDy=0;entryX=0.013;entryY=0.965;entryDx=0;entryDy=0;entryPerimeter=0;" parent="1" target="TFbKMD3UNeuh9TNxjZxt-26" edge="1">
          <mxGeometry x="-1" y="3" relative="1" as="geometry">
            <mxPoint x="648" y="570.49" as="sourcePoint" />
            <mxPoint x="710" y="500" as="targetPoint" />
            <Array as="points">
              <mxPoint x="680" y="570" />
              <mxPoint x="680" y="517" />
              <mxPoint x="710" y="517" />
            </Array>
          </mxGeometry>
        </mxCell>
        <mxCell id="TFbKMD3UNeuh9TNxjZxt-63" value="" style="endArrow=none;html=1;edgeStyle=orthogonalEdgeStyle;rounded=0;entryX=0.375;entryY=0;entryDx=0;entryDy=0;entryPerimeter=0;exitX=0.322;exitY=1.016;exitDx=0;exitDy=0;exitPerimeter=0;" parent="1" source="TFbKMD3UNeuh9TNxjZxt-7" edge="1">
          <mxGeometry relative="1" as="geometry">
            <mxPoint x="610" y="350" as="sourcePoint" />
            <mxPoint x="589" y="550" as="targetPoint" />
            <Array as="points">
              <mxPoint x="586" y="550" />
            </Array>
          </mxGeometry>
        </mxCell>
        <mxCell id="TFbKMD3UNeuh9TNxjZxt-64" value="" style="endArrow=block;dashed=1;endFill=0;endSize=12;html=1;rounded=0;entryX=0.001;entryY=0.765;entryDx=0;entryDy=0;entryPerimeter=0;" parent="1" target="TFbKMD3UNeuh9TNxjZxt-17" edge="1">
          <mxGeometry width="160" relative="1" as="geometry">
            <mxPoint x="590" y="400" as="sourcePoint" />
            <mxPoint x="610" y="400" as="targetPoint" />
          </mxGeometry>
        </mxCell>
        <mxCell id="TFbKMD3UNeuh9TNxjZxt-66" value="" style="endArrow=open;html=1;endSize=12;startArrow=diamondThin;startSize=14;startFill=1;edgeStyle=orthogonalEdgeStyle;align=left;verticalAlign=bottom;rounded=0;entryX=1.002;entryY=0.836;entryDx=0;entryDy=0;entryPerimeter=0;" parent="1" source="TFbKMD3UNeuh9TNxjZxt-29" target="j_iR4uDTyLjpUmLn6sbJ-21" edge="1">
          <mxGeometry x="-1" y="3" relative="1" as="geometry">
            <mxPoint x="730" y="750" as="sourcePoint" />
            <mxPoint x="718.5154236469073" y="870" as="targetPoint" />
            <Array as="points">
              <mxPoint x="730" y="776" />
              <mxPoint x="730" y="803" />
            </Array>
          </mxGeometry>
        </mxCell>
        <mxCell id="TFbKMD3UNeuh9TNxjZxt-67" value="" style="endArrow=open;startArrow=cross;endFill=0;startFill=0;endSize=8;startSize=10;html=1;rounded=0;entryX=0;entryY=0.048;entryDx=0;entryDy=0;entryPerimeter=0;exitX=0.853;exitY=0.006;exitDx=0;exitDy=0;exitPerimeter=0;" parent="1" source="TFbKMD3UNeuh9TNxjZxt-28" target="TFbKMD3UNeuh9TNxjZxt-35" edge="1">
          <mxGeometry width="160" relative="1" as="geometry">
            <mxPoint x="670" y="690" as="sourcePoint" />
            <mxPoint x="650" y="690" as="targetPoint" />
            <Array as="points" />
          </mxGeometry>
        </mxCell>
        <mxCell id="TFbKMD3UNeuh9TNxjZxt-68" value="" style="endArrow=open;html=1;endSize=12;startArrow=diamondThin;startSize=14;startFill=1;edgeStyle=orthogonalEdgeStyle;align=left;verticalAlign=bottom;rounded=0;entryX=1;entryY=0.024;entryDx=0;entryDy=0;entryPerimeter=0;" parent="1" source="TFbKMD3UNeuh9TNxjZxt-72" target="TFbKMD3UNeuh9TNxjZxt-35" edge="1">
          <mxGeometry x="-1" y="3" relative="1" as="geometry">
            <mxPoint x="1020" y="670" as="sourcePoint" />
            <mxPoint x="900" y="630" as="targetPoint" />
            <Array as="points">
              <mxPoint x="1020" y="649" />
            </Array>
          </mxGeometry>
        </mxCell>
        <mxCell id="TFbKMD3UNeuh9TNxjZxt-69" value="" style="endArrow=open;startArrow=cross;endFill=0;startFill=0;endSize=8;startSize=10;html=1;rounded=0;entryX=0.838;entryY=0.997;entryDx=0;entryDy=0;entryPerimeter=0;exitX=0.265;exitY=0.002;exitDx=0;exitDy=0;exitPerimeter=0;" parent="1" source="TFbKMD3UNeuh9TNxjZxt-1" target="TFbKMD3UNeuh9TNxjZxt-43" edge="1">
          <mxGeometry width="160" relative="1" as="geometry">
            <mxPoint x="301.55999999999995" y="207.75600000000003" as="sourcePoint" />
            <mxPoint x="281.7599999999999" y="149.54599999999994" as="targetPoint" />
          </mxGeometry>
        </mxCell>
        <mxCell id="TFbKMD3UNeuh9TNxjZxt-71" value="" style="endArrow=open;html=1;endSize=12;startArrow=diamondThin;startSize=14;startFill=0;edgeStyle=orthogonalEdgeStyle;rounded=0;entryX=0.009;entryY=1.069;entryDx=0;entryDy=0;entryPerimeter=0;exitX=1;exitY=0.695;exitDx=0;exitDy=0;exitPerimeter=0;" parent="1" source="TFbKMD3UNeuh9TNxjZxt-45" target="TFbKMD3UNeuh9TNxjZxt-49" edge="1">
          <mxGeometry relative="1" as="geometry">
            <mxPoint x="570" y="106" as="sourcePoint" />
            <mxPoint x="630" y="107" as="targetPoint" />
            <Array as="points">
              <mxPoint x="730" y="124" />
              <mxPoint x="730" y="292" />
            </Array>
          </mxGeometry>
        </mxCell>
        <mxCell id="TFbKMD3UNeuh9TNxjZxt-72" value="Questions" style="swimlane;fontStyle=1;align=center;verticalAlign=top;childLayout=stackLayout;horizontal=1;startSize=26;horizontalStack=0;resizeParent=1;resizeParentMax=0;resizeLast=0;collapsible=1;marginBottom=0;whiteSpace=wrap;html=1;" parent="1" vertex="1">
          <mxGeometry x="780" y="710" width="270" height="130" as="geometry" />
        </mxCell>
        <mxCell id="TFbKMD3UNeuh9TNxjZxt-73" value="- QuestionId : int&lt;div&gt;- Text : string&lt;/div&gt;&lt;div&gt;- CorrectAnswer : string&amp;nbsp;&lt;/div&gt;" style="text;strokeColor=none;fillColor=none;align=left;verticalAlign=top;spacingLeft=4;spacingRight=4;overflow=hidden;rotatable=0;points=[[0,0.5],[1,0.5]];portConstraint=eastwest;whiteSpace=wrap;html=1;" parent="TFbKMD3UNeuh9TNxjZxt-72" vertex="1">
          <mxGeometry y="26" width="270" height="54" as="geometry" />
        </mxCell>
        <mxCell id="TFbKMD3UNeuh9TNxjZxt-74" value="" style="line;strokeWidth=1;fillColor=none;align=left;verticalAlign=middle;spacingTop=-1;spacingLeft=3;spacingRight=3;rotatable=0;labelPosition=right;points=[];portConstraint=eastwest;strokeColor=inherit;" parent="TFbKMD3UNeuh9TNxjZxt-72" vertex="1">
          <mxGeometry y="80" width="270" height="8" as="geometry" />
        </mxCell>
        <mxCell id="TFbKMD3UNeuh9TNxjZxt-75" value="+ AddQuestion(text : string,CorrAnswer : string)&lt;div&gt;+ GetQuestion() : Question&amp;nbsp;&lt;/div&gt;" style="text;strokeColor=none;fillColor=none;align=left;verticalAlign=top;spacingLeft=4;spacingRight=4;overflow=hidden;rotatable=0;points=[[0,0.5],[1,0.5]];portConstraint=eastwest;whiteSpace=wrap;html=1;" parent="TFbKMD3UNeuh9TNxjZxt-72" vertex="1">
          <mxGeometry y="88" width="270" height="42" as="geometry" />
        </mxCell>
        <mxCell id="TFbKMD3UNeuh9TNxjZxt-76" value="" style="endArrow=open;startArrow=cross;endFill=0;startFill=0;endSize=8;startSize=10;html=1;rounded=0;exitX=0.668;exitY=-0.006;exitDx=0;exitDy=0;entryX=0.433;entryY=0.991;entryDx=0;entryDy=0;entryPerimeter=0;exitPerimeter=0;" parent="1" source="TFbKMD3UNeuh9TNxjZxt-48" target="TFbKMD3UNeuh9TNxjZxt-55" edge="1">
          <mxGeometry width="160" relative="1" as="geometry">
            <mxPoint x="870" y="130" as="sourcePoint" />
            <mxPoint x="840" y="170" as="targetPoint" />
            <Array as="points" />
          </mxGeometry>
        </mxCell>
        <mxCell id="TFbKMD3UNeuh9TNxjZxt-77" value="" style="endArrow=open;startArrow=cross;endFill=0;startFill=0;endSize=8;startSize=10;html=1;rounded=0;exitX=0.993;exitY=0.046;exitDx=0;exitDy=0;exitPerimeter=0;entryX=-0.008;entryY=0.139;entryDx=0;entryDy=0;entryPerimeter=0;" parent="1" source="TFbKMD3UNeuh9TNxjZxt-40" target="TFbKMD3UNeuh9TNxjZxt-52" edge="1">
          <mxGeometry width="160" relative="1" as="geometry">
            <mxPoint x="370" y="40" as="sourcePoint" />
            <mxPoint x="530" y="40" as="targetPoint" />
            <Array as="points">
              <mxPoint x="600" y="39" />
            </Array>
          </mxGeometry>
        </mxCell>
        <mxCell id="TFbKMD3UNeuh9TNxjZxt-78" value="Extends" style="endArrow=block;endSize=16;endFill=0;html=1;rounded=0;entryX=0;entryY=0.829;entryDx=0;entryDy=0;entryPerimeter=0;exitX=0.5;exitY=0;exitDx=0;exitDy=0;" parent="1" source="TFbKMD3UNeuh9TNxjZxt-56" edge="1" target="TFbKMD3UNeuh9TNxjZxt-89">
          <mxGeometry width="160" relative="1" as="geometry">
            <mxPoint x="70" y="310" as="sourcePoint" />
            <mxPoint x="238.03999999999996" y="310.302" as="targetPoint" />
            <Array as="points">
              <mxPoint x="120" y="310" />
            </Array>
          </mxGeometry>
        </mxCell>
        <mxCell id="TFbKMD3UNeuh9TNxjZxt-79" value="Extends" style="endArrow=block;endSize=16;endFill=0;html=1;rounded=0;entryX=1.005;entryY=0.259;entryDx=0;entryDy=0;entryPerimeter=0;exitX=0.012;exitY=0.825;exitDx=0;exitDy=0;exitPerimeter=0;" parent="1" source="TFbKMD3UNeuh9TNxjZxt-5" edge="1" target="TFbKMD3UNeuh9TNxjZxt-89">
          <mxGeometry width="160" relative="1" as="geometry">
            <mxPoint x="400" y="360" as="sourcePoint" />
            <mxPoint x="398.68000000000006" y="256.81600000000003" as="targetPoint" />
          </mxGeometry>
        </mxCell>
        <mxCell id="TFbKMD3UNeuh9TNxjZxt-80" value="Extends" style="endArrow=block;endSize=16;endFill=0;html=1;rounded=0;exitX=0.697;exitY=-0.007;exitDx=0;exitDy=0;exitPerimeter=0;entryX=0.224;entryY=0.53;entryDx=0;entryDy=0;entryPerimeter=0;" parent="1" source="TFbKMD3UNeuh9TNxjZxt-8" target="TFbKMD3UNeuh9TNxjZxt-3" edge="1">
          <mxGeometry width="160" relative="1" as="geometry">
            <mxPoint x="294.81999999999994" y="537.34" as="sourcePoint" />
            <mxPoint x="295.1199999999999" y="329.73799999999994" as="targetPoint" />
          </mxGeometry>
        </mxCell>
        <mxCell id="TFbKMD3UNeuh9TNxjZxt-81" value="DBController" style="swimlane;fontStyle=1;align=center;verticalAlign=top;childLayout=stackLayout;horizontal=1;startSize=26;horizontalStack=0;resizeParent=1;resizeParentMax=0;resizeLast=0;collapsible=1;marginBottom=0;whiteSpace=wrap;html=1;" parent="1" vertex="1">
          <mxGeometry x="340" y="344" width="160" height="180" as="geometry" />
        </mxCell>
        <mxCell id="TFbKMD3UNeuh9TNxjZxt-82" value="+ DbHost&lt;div&gt;+ DbUser&lt;/div&gt;&lt;div&gt;+ DbPassword&lt;/div&gt;&lt;div&gt;+ DbName&lt;/div&gt;&lt;div&gt;+Connection&lt;/div&gt;" style="text;strokeColor=none;fillColor=none;align=left;verticalAlign=top;spacingLeft=4;spacingRight=4;overflow=hidden;rotatable=0;points=[[0,0.5],[1,0.5]];portConstraint=eastwest;whiteSpace=wrap;html=1;" parent="TFbKMD3UNeuh9TNxjZxt-81" vertex="1">
          <mxGeometry y="26" width="160" height="74" as="geometry" />
        </mxCell>
        <mxCell id="TFbKMD3UNeuh9TNxjZxt-83" value="" style="line;strokeWidth=1;fillColor=none;align=left;verticalAlign=middle;spacingTop=-1;spacingLeft=3;spacingRight=3;rotatable=0;labelPosition=right;points=[];portConstraint=eastwest;strokeColor=inherit;" parent="TFbKMD3UNeuh9TNxjZxt-81" vertex="1">
          <mxGeometry y="100" width="160" height="8" as="geometry" />
        </mxCell>
        <mxCell id="TFbKMD3UNeuh9TNxjZxt-84" value="+ Select&amp;nbsp; (query : string)&lt;div&gt;+ Insert&amp;nbsp; &amp;nbsp;(query : string)&lt;/div&gt;&lt;div&gt;+ Update(query : string)&lt;/div&gt;&lt;div&gt;+ Delete(query&amp;nbsp; : string)&lt;br&gt;&lt;div&gt;&lt;br&gt;&lt;/div&gt;&lt;/div&gt;" style="text;strokeColor=none;fillColor=none;align=left;verticalAlign=top;spacingLeft=4;spacingRight=4;overflow=hidden;rotatable=0;points=[[0,0.5],[1,0.5]];portConstraint=eastwest;whiteSpace=wrap;html=1;" parent="TFbKMD3UNeuh9TNxjZxt-81" vertex="1">
          <mxGeometry y="108" width="160" height="72" as="geometry" />
        </mxCell>
        <mxCell id="TFbKMD3UNeuh9TNxjZxt-85" value="" style="endArrow=none;html=1;edgeStyle=orthogonalEdgeStyle;rounded=0;entryX=0.624;entryY=-0.004;entryDx=0;entryDy=0;entryPerimeter=0;exitX=0.999;exitY=0.706;exitDx=0;exitDy=0;exitPerimeter=0;" parent="1" source="TFbKMD3UNeuh9TNxjZxt-89" target="TFbKMD3UNeuh9TNxjZxt-81" edge="1">
          <mxGeometry relative="1" as="geometry">
            <mxPoint x="440" y="300" as="sourcePoint" />
            <mxPoint x="560" y="340" as="targetPoint" />
          </mxGeometry>
        </mxCell>
        <mxCell id="TFbKMD3UNeuh9TNxjZxt-86" value="" style="endArrow=open;startArrow=cross;endFill=0;startFill=0;endSize=8;startSize=10;html=1;rounded=0;exitX=0.336;exitY=1;exitDx=0;exitDy=0;exitPerimeter=0;entryX=0.011;entryY=0.505;entryDx=0;entryDy=0;entryPerimeter=0;" parent="1" source="TFbKMD3UNeuh9TNxjZxt-11" target="TFbKMD3UNeuh9TNxjZxt-21" edge="1">
          <mxGeometry width="160" relative="1" as="geometry">
            <mxPoint x="80" y="650" as="sourcePoint" />
            <mxPoint x="240" y="650" as="targetPoint" />
            <Array as="points">
              <mxPoint x="230" y="753" />
            </Array>
          </mxGeometry>
        </mxCell>
        <mxCell id="TFbKMD3UNeuh9TNxjZxt-65" value="" style="endArrow=open;html=1;endSize=12;startArrow=diamondThin;startSize=14;startFill=1;edgeStyle=orthogonalEdgeStyle;align=left;verticalAlign=bottom;rounded=0;exitX=0.728;exitY=1.011;exitDx=0;exitDy=0;exitPerimeter=0;entryX=0.34;entryY=-0.001;entryDx=0;entryDy=0;entryPerimeter=0;" parent="1" source="TFbKMD3UNeuh9TNxjZxt-15" target="TFbKMD3UNeuh9TNxjZxt-28" edge="1">
          <mxGeometry x="-1" y="3" relative="1" as="geometry">
            <mxPoint x="593.8" y="694" as="sourcePoint" />
            <mxPoint x="594" y="710" as="targetPoint" />
            <Array as="points">
              <mxPoint x="594" y="680" />
              <mxPoint x="594" y="680" />
            </Array>
          </mxGeometry>
        </mxCell>
        <mxCell id="j_iR4uDTyLjpUmLn6sbJ-1" value="&lt;font style=&quot;font-size: 12px;&quot;&gt;[0...*]&lt;/font&gt;" style="text;html=1;align=center;verticalAlign=middle;resizable=0;points=[];autosize=1;strokeColor=none;fillColor=none;" vertex="1" parent="1">
          <mxGeometry x="179" y="206" width="50" height="30" as="geometry" />
        </mxCell>
        <mxCell id="j_iR4uDTyLjpUmLn6sbJ-2" value="&lt;font style=&quot;font-size: 10px;&quot;&gt;Has&lt;/font&gt;" style="text;html=1;align=center;verticalAlign=middle;resizable=0;points=[];autosize=1;strokeColor=none;fillColor=none;" vertex="1" parent="1">
          <mxGeometry x="207" y="222" width="40" height="30" as="geometry" />
        </mxCell>
        <mxCell id="j_iR4uDTyLjpUmLn6sbJ-3" value="&lt;font style=&quot;font-size: 9px;&quot;&gt;Create&lt;/font&gt;" style="text;html=1;align=center;verticalAlign=middle;resizable=0;points=[];autosize=1;strokeColor=none;fillColor=none;rotation=90;" vertex="1" parent="1">
          <mxGeometry x="270" y="160" width="50" height="30" as="geometry" />
        </mxCell>
        <mxCell id="j_iR4uDTyLjpUmLn6sbJ-4" value="&lt;font style=&quot;font-size: 10px;&quot;&gt;[0...*]&lt;/font&gt;" style="text;html=1;align=center;verticalAlign=middle;resizable=0;points=[];autosize=1;strokeColor=none;fillColor=none;" vertex="1" parent="1">
          <mxGeometry x="290" y="148" width="50" height="30" as="geometry" />
        </mxCell>
        <mxCell id="j_iR4uDTyLjpUmLn6sbJ-5" value="&lt;font style=&quot;font-size: 24px;&quot;&gt;*&lt;/font&gt;" style="text;html=1;align=center;verticalAlign=middle;resizable=0;points=[];autosize=1;strokeColor=none;fillColor=none;" vertex="1" parent="1">
          <mxGeometry x="580" y="524" width="30" height="40" as="geometry" />
        </mxCell>
        <mxCell id="j_iR4uDTyLjpUmLn6sbJ-6" value="&lt;font style=&quot;font-size: 24px;&quot;&gt;*&lt;/font&gt;" style="text;html=1;align=center;verticalAlign=middle;resizable=0;points=[];autosize=1;strokeColor=none;fillColor=none;" vertex="1" parent="1">
          <mxGeometry x="580" y="316" width="30" height="40" as="geometry" />
        </mxCell>
        <mxCell id="j_iR4uDTyLjpUmLn6sbJ-7" value="Register" style="text;html=1;align=center;verticalAlign=middle;resizable=0;points=[];autosize=1;strokeColor=none;fillColor=none;rotation=90;" vertex="1" parent="1">
          <mxGeometry x="540" y="419" width="70" height="30" as="geometry" />
        </mxCell>
        <mxCell id="j_iR4uDTyLjpUmLn6sbJ-10" value="Teach" style="text;html=1;align=center;verticalAlign=middle;resizable=0;points=[];autosize=1;strokeColor=none;fillColor=none;" vertex="1" parent="1">
          <mxGeometry x="369" y="570" width="60" height="30" as="geometry" />
        </mxCell>
        <mxCell id="j_iR4uDTyLjpUmLn6sbJ-11" value="&lt;font style=&quot;font-size: 18px;&quot;&gt;*&lt;/font&gt;" style="text;html=1;align=center;verticalAlign=middle;resizable=0;points=[];autosize=1;strokeColor=none;fillColor=none;" vertex="1" parent="1">
          <mxGeometry x="418" y="550" width="30" height="40" as="geometry" />
        </mxCell>
        <mxCell id="j_iR4uDTyLjpUmLn6sbJ-13" value="Has" style="text;html=1;align=center;verticalAlign=middle;resizable=0;points=[];autosize=1;strokeColor=none;fillColor=none;rotation=90;" vertex="1" parent="1">
          <mxGeometry x="668" y="529" width="40" height="30" as="geometry" />
        </mxCell>
        <mxCell id="j_iR4uDTyLjpUmLn6sbJ-14" value="&lt;font style=&quot;font-size: 24px;&quot;&gt;*&lt;/font&gt;" style="text;html=1;align=center;verticalAlign=middle;resizable=0;points=[];autosize=1;strokeColor=none;fillColor=none;" vertex="1" parent="1">
          <mxGeometry x="670" y="489" width="30" height="40" as="geometry" />
        </mxCell>
        <mxCell id="j_iR4uDTyLjpUmLn6sbJ-15" value="Has" style="text;html=1;align=center;verticalAlign=middle;resizable=0;points=[];autosize=1;strokeColor=none;fillColor=none;rotation=90;" vertex="1" parent="1">
          <mxGeometry x="200" y="710" width="40" height="30" as="geometry" />
        </mxCell>
        <mxCell id="j_iR4uDTyLjpUmLn6sbJ-17" value="&lt;font style=&quot;font-size: 18px;&quot;&gt;*&lt;/font&gt;" style="text;html=1;align=center;verticalAlign=middle;resizable=0;points=[];autosize=1;strokeColor=none;fillColor=none;" vertex="1" parent="1">
          <mxGeometry x="225" y="730" width="30" height="40" as="geometry" />
        </mxCell>
        <mxCell id="j_iR4uDTyLjpUmLn6sbJ-18" value="" style="endArrow=open;html=1;endSize=12;startArrow=diamondThin;startSize=14;startFill=1;edgeStyle=orthogonalEdgeStyle;align=left;verticalAlign=bottom;rounded=0;exitX=-0.008;exitY=-0.02;exitDx=0;exitDy=0;exitPerimeter=0;entryX=0.127;entryY=0.979;entryDx=0;entryDy=0;entryPerimeter=0;" edge="1" parent="1" source="TFbKMD3UNeuh9TNxjZxt-15" target="j_iR4uDTyLjpUmLn6sbJ-20">
          <mxGeometry x="-1" y="3" relative="1" as="geometry">
            <mxPoint x="370" y="680" as="sourcePoint" />
            <mxPoint x="430" y="690" as="targetPoint" />
            <Array as="points">
              <mxPoint x="430" y="638" />
              <mxPoint x="409" y="638" />
            </Array>
          </mxGeometry>
        </mxCell>
        <mxCell id="j_iR4uDTyLjpUmLn6sbJ-19" value="Has" style="text;html=1;align=center;verticalAlign=middle;resizable=0;points=[];autosize=1;strokeColor=none;fillColor=none;rotation=90;" vertex="1" parent="1">
          <mxGeometry x="379" y="640" width="40" height="30" as="geometry" />
        </mxCell>
        <mxCell id="j_iR4uDTyLjpUmLn6sbJ-20" value="&lt;font style=&quot;font-size: 18px;&quot;&gt;*&lt;/font&gt;" style="text;html=1;align=center;verticalAlign=middle;resizable=0;points=[];autosize=1;strokeColor=none;fillColor=none;" vertex="1" parent="1">
          <mxGeometry x="405" y="664" width="30" height="40" as="geometry" />
        </mxCell>
        <mxCell id="j_iR4uDTyLjpUmLn6sbJ-21" value="&lt;font style=&quot;font-size: 18px;&quot;&gt;*&lt;/font&gt;" style="text;html=1;align=center;verticalAlign=middle;resizable=0;points=[];autosize=1;strokeColor=none;fillColor=none;" vertex="1" parent="1">
          <mxGeometry x="750" y="770" width="30" height="40" as="geometry" />
        </mxCell>
        <mxCell id="j_iR4uDTyLjpUmLn6sbJ-22" value="Has" style="text;html=1;align=center;verticalAlign=middle;resizable=0;points=[];autosize=1;strokeColor=none;fillColor=none;" vertex="1" parent="1">
          <mxGeometry x="720" y="800" width="40" height="30" as="geometry" />
        </mxCell>
        <mxCell id="j_iR4uDTyLjpUmLn6sbJ-23" value="Has" style="text;html=1;align=center;verticalAlign=middle;resizable=0;points=[];autosize=1;strokeColor=none;fillColor=none;" vertex="1" parent="1">
          <mxGeometry x="930" y="625" width="40" height="30" as="geometry" />
        </mxCell>
        <mxCell id="j_iR4uDTyLjpUmLn6sbJ-24" value="Has" style="text;html=1;align=center;verticalAlign=middle;resizable=0;points=[];autosize=1;strokeColor=none;fillColor=none;rotation=90;" vertex="1" parent="1">
          <mxGeometry x="860" y="173" width="40" height="30" as="geometry" />
        </mxCell>
        <mxCell id="j_iR4uDTyLjpUmLn6sbJ-25" value="Add" style="text;html=1;align=center;verticalAlign=middle;resizable=0;points=[];autosize=1;strokeColor=none;fillColor=none;" vertex="1" parent="1">
          <mxGeometry x="670" y="100" width="40" height="30" as="geometry" />
        </mxCell>
        <mxCell id="j_iR4uDTyLjpUmLn6sbJ-26" value="&lt;font style=&quot;font-size: 18px;&quot;&gt;*&lt;/font&gt;" style="text;html=1;align=center;verticalAlign=middle;resizable=0;points=[];autosize=1;strokeColor=none;fillColor=none;" vertex="1" parent="1">
          <mxGeometry x="725" y="253" width="30" height="40" as="geometry" />
        </mxCell>
        <mxCell id="j_iR4uDTyLjpUmLn6sbJ-27" value="&lt;font style=&quot;font-size: 24px;&quot;&gt;*&lt;/font&gt;" style="text;html=1;align=center;verticalAlign=middle;resizable=0;points=[];autosize=1;strokeColor=none;fillColor=none;" vertex="1" parent="1">
          <mxGeometry x="432" y="320" width="30" height="40" as="geometry" />
        </mxCell>
        <mxCell id="j_iR4uDTyLjpUmLn6sbJ-28" value="&lt;font style=&quot;font-size: 24px;&quot;&gt;*&lt;/font&gt;" style="text;html=1;align=center;verticalAlign=middle;resizable=0;points=[];autosize=1;strokeColor=none;fillColor=none;" vertex="1" parent="1">
          <mxGeometry x="413" y="276" width="30" height="40" as="geometry" />
        </mxCell>
        <mxCell id="j_iR4uDTyLjpUmLn6sbJ-29" value="Use" style="text;html=1;align=center;verticalAlign=middle;resizable=0;points=[];autosize=1;strokeColor=none;fillColor=none;rotation=90;" vertex="1" parent="1">
          <mxGeometry x="427" y="298" width="40" height="30" as="geometry" />
        </mxCell>
        <mxCell id="j_iR4uDTyLjpUmLn6sbJ-30" value="&lt;font style=&quot;font-size: 18px;&quot;&gt;*&lt;/font&gt;" style="text;html=1;align=center;verticalAlign=middle;resizable=0;points=[];autosize=1;strokeColor=none;fillColor=none;" vertex="1" parent="1">
          <mxGeometry x="330" y="100" width="30" height="40" as="geometry" />
        </mxCell>
        <mxCell id="j_iR4uDTyLjpUmLn6sbJ-32" value="Association&lt;div&gt;Class&lt;/div&gt;" style="html=1;dropTarget=0;whiteSpace=wrap;" vertex="1" parent="1">
          <mxGeometry x="930" y="385" width="120" height="65" as="geometry" />
        </mxCell>
        <mxCell id="j_iR4uDTyLjpUmLn6sbJ-33" value="" style="shape=module;jettyWidth=8;jettyHeight=4;" vertex="1" parent="j_iR4uDTyLjpUmLn6sbJ-32">
          <mxGeometry x="1" width="20" height="20" relative="1" as="geometry">
            <mxPoint x="-27" y="7" as="offset" />
          </mxGeometry>
        </mxCell>
        <mxCell id="j_iR4uDTyLjpUmLn6sbJ-34" value="" style="endArrow=block;dashed=1;endFill=0;endSize=12;html=1;rounded=0;exitX=-0.015;exitY=0.301;exitDx=0;exitDy=0;exitPerimeter=0;entryX=1.001;entryY=0.972;entryDx=0;entryDy=0;entryPerimeter=0;" edge="1" parent="1" source="j_iR4uDTyLjpUmLn6sbJ-32" target="TFbKMD3UNeuh9TNxjZxt-17">
          <mxGeometry width="160" relative="1" as="geometry">
            <mxPoint x="920" y="344" as="sourcePoint" />
            <mxPoint x="1080" y="344" as="targetPoint" />
          </mxGeometry>
        </mxCell>
        <mxCell id="j_iR4uDTyLjpUmLn6sbJ-35" value="Has" style="text;html=1;align=center;verticalAlign=middle;resizable=0;points=[];autosize=1;strokeColor=none;fillColor=none;" vertex="1" parent="1">
          <mxGeometry x="500" y="13" width="40" height="30" as="geometry" />
        </mxCell>
        <mxCell id="j_iR4uDTyLjpUmLn6sbJ-36" value="&lt;font style=&quot;font-size: 18px;&quot;&gt;*&lt;/font&gt;" style="text;html=1;align=center;verticalAlign=middle;resizable=0;points=[];autosize=1;strokeColor=none;fillColor=none;" vertex="1" parent="1">
          <mxGeometry x="725" y="11" width="30" height="40" as="geometry" />
        </mxCell>
        <mxCell id="j_iR4uDTyLjpUmLn6sbJ-37" value="1" style="endArrow=open;html=1;endSize=12;startArrow=diamondThin;startSize=14;startFill=0;edgeStyle=orthogonalEdgeStyle;align=left;verticalAlign=bottom;rounded=0;entryX=0.988;entryY=0.108;entryDx=0;entryDy=0;entryPerimeter=0;exitX=0.007;exitY=0.735;exitDx=0;exitDy=0;exitPerimeter=0;" edge="1" parent="1" source="TFbKMD3UNeuh9TNxjZxt-45" target="TFbKMD3UNeuh9TNxjZxt-43">
          <mxGeometry x="-1" y="3" relative="1" as="geometry">
            <mxPoint x="348" y="148" as="sourcePoint" />
            <mxPoint x="508" y="148" as="targetPoint" />
          </mxGeometry>
        </mxCell>
      </root>
    </mxGraphModel>
  </diagram>
</mxfile>
